# xmcd
#
# Track frame offsets:
#	150
#	14007
#	26469
#	40030
#	60250
#	74306
#	88501
#	102652
#	116412
#	129010
#	148851
#	165285
#	175701
#
# Disc length: 2505 seconds
#
# Revision: 1
# Processed by: cddbd v1.5.2PL0 Copyright (c) Steve Scherf et al.
# Submitted via: audiograbber 1.83.01
#
DISCID=9e09c70d
DTITLE=Irma - Letter To The Lord
DYEAR=2013
DGENRE=Blues
TTITLE0=Letter To The Lord
TTITLE1=I Know
TTITLE2=Their Truth
TTITLE3=Somebody Love Me
TTITLE4=End Of The Story
TTITLE5=Your Guide
TTITLE6=Everybody
TTITLE7=Radio
TTITLE8=Watching Grap On TV
TTITLE9=Somehow
TTITLE10=Every Smile
TTITLE11=My Friend
TTITLE12=I Know Feat. Mic Donet
EXTD=
EXTT0=
EXTT1=
EXTT2=
EXTT3=
EXTT4=
EXTT5=
EXTT6=
EXTT7=
EXTT8=
EXTT9=
EXTT10=
EXTT11=
EXTT12=
PLAYORDER=
